<?xml version="1.0" encoding="utf-8"?>
<!-- Generator: Adobe Illustrator 21.0.2, SVG Export Plug-In . SVG Version: 6.00 Build 0)  -->
<svg version="1.1" id="Capa_1" xmlns="http://www.w3.org/2000/svg" xmlns:xlink="http://www.w3.org/1999/xlink" x="0px" y="0px"
	 viewBox="0 0 115.7 82.9" style="enable-background:new 0 0 115.7 82.9;" xml:space="preserve">
<style type="text/css">
	.st0{fill:#FFF1DA;}
	.st1{fill:#D5D6DB;}
	.st2{fill:#029BC5;}
	.st3{fill:#E1E6E9;}
	.st4{fill:#3A556A;}
</style>
<path class="st0" d="M24.3,33.7c0,9.9,8.1,18,18,18h27c2.8,0,5-2.2,5-5v-34c0-5.5-4.5-10-10-10h-35c-2.8,0-5,2.2-5,5V33.7z"/>
<path class="st1" d="M72.9,47.6c-1.4,0.3-2.7,0.9-3.9,1.7c-3.1,2-5,4.9-4.1,6.4c0.9,1.5,4.2,1.1,7.3-0.9c1.2-0.8,2.3-1.7,3.2-2.9
	c0.4-0.5,0.5-1.2,0.2-1.7l-1.2-2C74.2,47.7,73.6,47.5,72.9,47.6z"/>
<path class="st1" d="M65,20.6c-1,0.2-1.9,0.6-2.8,1.2c-2.3,1.5-3.6,3.5-3,4.6c0.6,1.1,3,0.8,5.3-0.6c0.9-0.6,1.7-1.3,2.3-2.1
	c0.3-0.4,0.3-0.9,0.1-1.2l-0.8-1.4C65.9,20.7,65.5,20.5,65,20.6z"/>
<path class="st2" d="M52.2,21.7c-0.2,0-0.5,0-0.7,0.2l-5.3,3.4c-0.4,0.3-0.6,0.8-0.4,1.2c0.1,0.1,0.1,0.2,0.2,0.2l13.2,9.1L77,24.5
	L52.2,21.7z"/>
<path class="st3" d="M108.6,20.5L60.1,51L31.3,62.4l-14.6,2.9l-1.6-2.7L96,12.7c2.4-1.5,5.1-2.4,7.8-2.7c1.2-0.1,2.3-0.1,3.5,0.1
	c1,0.2,1.9,0.4,2.8,0.9c1,0.5,2.8,0.5,3.4,1.5C113.4,12.5,114.8,16.8,108.6,20.5z"/>
<path class="st2" d="M60.7,47l-21,33.5c-0.3,0.5-0.1,1,0.3,1.2c0.3,0.1,0.6,0.1,0.9-0.1l5.3-3.4c1-0.7,1.9-1.5,2.7-2.4l40.7-47.9
	L60.7,47z"/>
<path class="st2" d="M7.7,45.8C7.4,45.7,7,45.8,6.6,46l-4.4,2.8c-0.6,0.4-0.8,1.1-0.5,1.6c0.1,0.1,0.1,0.2,0.2,0.3l12.4,9.9l13-8.1
	L7.7,45.8z"/>
<path class="st2" d="M18.4,62.4l-6.7,9.3c-0.1,0.1-0.1,0.3,0.1,0.4c0.1,0.1,0.2,0,0.3,0l4.1-2.6c0,0,0.1,0,0.1-0.1l9.7-11.8
	L18.4,62.4z"/>
<path class="st2" d="M106.4,10.5c-1.2-0.2-2.4-0.2-3.6-0.1c-1.2,1.7-1.9,3.5-2.2,5.4c0,0.4,0.3,0.6,0.7,0.6c0.1,0,0.2-0.1,0.4-0.1
	l7.6-4.8C108.4,11,107.5,10.7,106.4,10.5z"/>
<path class="st1" d="M89.9,19.4l5-3.1l4.6,7.9l-5,3.1L89.9,19.4z"/>
<path class="st4" d="M86.7,22.5c-0.6,0.4-0.8,1.1-0.5,1.6l0.5,0.8c0.3,0.5,1.1,0.6,1.7,0.2c0.6-0.4,0.8-1.1,0.5-1.6l-0.5-0.8
	C88.1,22.3,87.3,22.2,86.7,22.5z"/>
<path class="st4" d="M82.3,25.3c-0.6,0.4-0.8,1.1-0.5,1.6l0.5,0.8c0.3,0.5,1.1,0.6,1.7,0.2c0.6-0.4,0.8-1.1,0.5-1.6l-0.5-0.8
	C83.6,25,82.9,24.9,82.3,25.3z"/>
<path class="st4" d="M77.8,28.1c-0.6,0.4-0.8,1.1-0.5,1.6l0.5,0.8c0.3,0.5,1.1,0.6,1.7,0.2c0.6-0.4,0.8-1.1,0.5-1.6l-0.5-0.8
	C79.1,27.8,78.4,27.7,77.8,28.1z"/>
<path class="st4" d="M73.3,30.9c-0.6,0.4-0.8,1.1-0.5,1.6l0.5,0.8c0.3,0.5,1.1,0.6,1.7,0.2c0.6-0.4,0.8-1.1,0.5-1.6L75,31.1
	C74.7,30.6,73.9,30.5,73.3,30.9z"/>
<path class="st4" d="M68.9,33.6c-0.6,0.4-0.8,1.1-0.5,1.6l0.5,0.8c0.3,0.5,1,0.6,1.6,0.3c0.6-0.4,0.8-1.1,0.5-1.6l-0.5-0.8
	C70.2,33.4,69.5,33.2,68.9,33.6C68.9,33.6,68.9,33.6,68.9,33.6z"/>
<path class="st4" d="M64.4,36.4c-0.6,0.4-0.8,1.1-0.5,1.6l0.5,0.8c0.3,0.5,1,0.6,1.6,0.3c0.6-0.4,0.8-1.1,0.5-1.6L66,36.7
	C65.7,36.1,65,36,64.4,36.4C64.4,36.4,64.4,36.4,64.4,36.4z"/>
<path class="st4" d="M59.9,39.2c-0.6,0.4-0.8,1.1-0.5,1.6l0.5,0.8c0.3,0.5,1,0.6,1.6,0.3c0.6-0.4,0.8-1.1,0.5-1.6l-0.5-0.8
	C61.3,38.9,60.5,38.8,59.9,39.2z"/>
<path class="st4" d="M55.5,41.9c-0.6,0.4-0.8,1.1-0.5,1.6l0.5,0.8c0.3,0.5,1,0.6,1.6,0.3c0.6-0.4,0.8-1.1,0.5-1.6l-0.5-0.8
	C56.8,41.7,56.1,41.6,55.5,41.9z"/>
<path class="st4" d="M51,44.7c-0.6,0.4-0.8,1.1-0.5,1.6l0.5,0.8c0.3,0.5,1,0.6,1.6,0.3c0.6-0.4,0.8-1.1,0.5-1.6L52.7,45
	C52.3,44.5,51.6,44.3,51,44.7z"/>
<path class="st4" d="M46.6,47.5c-0.6,0.4-0.8,1.1-0.5,1.6l0,0l0.5,0.8c0.3,0.5,1,0.6,1.6,0.3c0.6-0.4,0.8-1.1,0.5-1.6l-0.5-0.8
	C47.9,47.2,47.2,47.1,46.6,47.5z"/>
<path class="st4" d="M42.1,50.3c-0.6,0.4-0.8,1.1-0.5,1.6l0,0l0.5,0.8c0.3,0.5,1,0.6,1.6,0.3c0.6-0.4,0.8-1.1,0.5-1.6l-0.5-0.8
	C43.4,50,42.7,49.9,42.1,50.3z"/>
</svg>
