<?xml version="1.0" encoding="utf-8"?>
<!-- Generator: Adobe Illustrator 21.0.2, SVG Export Plug-In . SVG Version: 6.00 Build 0)  -->
<svg version="1.1" id="Capa_1" xmlns="http://www.w3.org/2000/svg" xmlns:xlink="http://www.w3.org/1999/xlink" x="0px" y="0px"
	 viewBox="0 0 22 22" style="enable-background:new 0 0 22 22;" xml:space="preserve">
<style type="text/css">
	.st0{fill:#FFFFFF;}
</style>
<path class="st0" d="M0.5,4.5C0.2,4.5,0,4.2,0,3.9V0.5C0,0.2,0.2,0,0.5,0h3.4c0.3,0,0.5,0.2,0.5,0.5v1.2h13V0.5
	c0-0.3,0.2-0.5,0.5-0.5h3.4C21.8,0,22,0.2,22,0.5v3.4c0,0.3-0.2,0.5-0.5,0.5h-1.2v13h1.2c0.3,0,0.5,0.2,0.5,0.5v3.4
	c0,0.3-0.2,0.5-0.5,0.5h-3.4c-0.3,0-0.5-0.2-0.5-0.5v-1.2h-13v1.2c0,0.3-0.2,0.5-0.5,0.5H0.5C0.2,22,0,21.8,0,21.5v-3.4
	c0-0.3,0.2-0.5,0.5-0.5h1.2v-13H0.5z M20.9,3.4V1.1h-2.3v2.3H20.9z M18.6,20.9h2.3v-2.3h-2.3V20.9z M4.5,18.1v1.1h13v-1.1
	c0-0.3,0.2-0.5,0.5-0.5h1.1v-13h-1.1c-0.3,0-0.5-0.2-0.5-0.5V2.8h-13v1.1c0,0.3-0.2,0.5-0.5,0.5H2.8v13h1.1
	C4.2,17.5,4.5,17.8,4.5,18.1z M1.1,18.6v2.3h2.3v-2.3H1.1z M3.4,3.4V1.1H1.1v2.3H3.4z"/>
</svg>
