<?xml version="1.0" encoding="utf-8"?>
<!-- Generator: Adobe Illustrator 21.0.2, SVG Export Plug-In . SVG Version: 6.00 Build 0)  -->
<svg version="1.1" id="Capa_1" xmlns="http://www.w3.org/2000/svg" xmlns:xlink="http://www.w3.org/1999/xlink" x="0px" y="0px"
	 viewBox="0 0 16 16" style="enable-background:new 0 0 16 16;" xml:space="preserve">
<style type="text/css">
	.st0{fill:#FFFFFF;}
</style>
<path class="st0" d="M13.7,0H2.3C1.1,0,0,1.1,0,2.3v11.3C0,14.9,1.1,16,2.3,16h11.3c1.3,0,2.3-1.1,2.3-2.3V2.3C16,1.1,14.9,0,13.7,0
	z M15.1,13.7c0,0.8-0.6,1.4-1.4,1.4H2.3c-0.8,0-1.4-0.6-1.4-1.4V2.3c0-0.8,0.6-1.4,1.4-1.4h11.3c0.8,0,1.4,0.6,1.4,1.4V13.7z"/>
<path class="st0" d="M13.2,1.9c-0.5,0-0.9,0.4-0.9,0.9s0.4,0.9,0.9,0.9c0.5,0,0.9-0.4,0.9-0.9S13.7,1.9,13.2,1.9z"/>
<path class="st0" d="M8,3.8C5.7,3.8,3.8,5.7,3.8,8c0,2.3,1.9,4.2,4.2,4.2c2.3,0,4.2-1.9,4.2-4.2C12.2,5.7,10.3,3.8,8,3.8z M8,11.3
	c-1.8,0-3.3-1.5-3.3-3.3c0-1.8,1.5-3.3,3.3-3.3c1.8,0,3.3,1.5,3.3,3.3C11.3,9.8,9.8,11.3,8,11.3z"/>
</svg>
