<?xml version="1.0" encoding="utf-8"?>
<!-- Generator: Adobe Illustrator 21.0.2, SVG Export Plug-In . SVG Version: 6.00 Build 0)  -->
<svg version="1.1" id="Capa_1" xmlns="http://www.w3.org/2000/svg" xmlns:xlink="http://www.w3.org/1999/xlink" x="0px" y="0px"
	 viewBox="0 0 21 18" style="enable-background:new 0 0 21 18;" xml:space="preserve">
<style type="text/css">
	.st0{fill:#39425D;}
</style>
<g>
	<path class="st0" d="M10,10.7c-0.3,0-0.6-0.1-0.9-0.3L3.7,6.4C3.5,6.2,3.4,5.9,3.6,5.7c0.2-0.2,0.5-0.3,0.7-0.1l5.4,4
		c0.2,0.1,0.4,0.1,0.6,0l5.4-4c0.2-0.2,0.5-0.1,0.7,0.1c0.2,0.2,0.1,0.5-0.1,0.7l-5.4,4.1C10.6,10.6,10.3,10.7,10,10.7z"/>
</g>
<g>
	<path class="st0" d="M16,18H5c-2.8,0-5-2.2-5-5V5c0-2.8,2.2-5,5-5h11c2.8,0,5,2.2,5,5v8C21,15.8,18.8,18,16,18z M5,1
		C2.8,1,1,2.8,1,5v8c0,2.2,1.8,4,4,4h11c2.2,0,4-1.8,4-4V5c0-2.2-1.8-4-4-4H5z"/>
</g>
</svg>
